<svg width="16" height="16" viewBox="0 0 16 16" fill="none" xmlns="http://www.w3.org/2000/svg">
<g clip-path="url(#clip0_253_10485)">
<mask id="path-1-inside-1_253_10485" fill="white">
<path fill-rule="evenodd" clip-rule="evenodd" d="M8.00033 1.88873C4.62525 1.88873 1.88921 4.62476 1.88921 7.99984C1.88921 11.3749 4.62525 14.1109 8.00033 14.1109C11.3754 14.1109 14.1114 11.3749 14.1114 7.99984C14.1114 4.62476 11.3754 1.88873 8.00033 1.88873ZM0.666992 7.99984C0.666992 3.94976 3.95025 0.666504 8.00033 0.666504C12.0504 0.666504 15.3337 3.94976 15.3337 7.99984C15.3337 12.0499 12.0504 15.3332 8.00033 15.3332C3.95025 15.3332 0.666992 12.0499 0.666992 7.99984Z"/>
</mask>
<path fill-rule="evenodd" clip-rule="evenodd" d="M8.00033 1.88873C4.62525 1.88873 1.88921 4.62476 1.88921 7.99984C1.88921 11.3749 4.62525 14.1109 8.00033 14.1109C11.3754 14.1109 14.1114 11.3749 14.1114 7.99984C14.1114 4.62476 11.3754 1.88873 8.00033 1.88873ZM0.666992 7.99984C0.666992 3.94976 3.95025 0.666504 8.00033 0.666504C12.0504 0.666504 15.3337 3.94976 15.3337 7.99984C15.3337 12.0499 12.0504 15.3332 8.00033 15.3332C3.95025 15.3332 0.666992 12.0499 0.666992 7.99984Z" fill="#A7F3D0"/>
<path d="M8.00033 -0.111274C3.52068 -0.111274 -0.110786 3.52019 -0.110786 7.99984H3.88921C3.88921 5.72933 5.72982 3.88873 8.00033 3.88873V-0.111274ZM-0.110786 7.99984C-0.110786 12.4795 3.52068 16.1109 8.00033 16.1109V12.1109C5.72982 12.1109 3.88921 10.2703 3.88921 7.99984H-0.110786ZM8.00033 16.1109C12.48 16.1109 16.1114 12.4795 16.1114 7.99984H12.1114C12.1114 10.2703 10.2708 12.1109 8.00033 12.1109V16.1109ZM16.1114 7.99984C16.1114 3.52019 12.48 -0.111274 8.00033 -0.111274V3.88873C10.2708 3.88873 12.1114 5.72933 12.1114 7.99984H16.1114ZM2.66699 7.99984C2.66699 5.05433 5.05482 2.6665 8.00033 2.6665V-1.3335C2.84568 -1.3335 -1.33301 2.84519 -1.33301 7.99984H2.66699ZM8.00033 2.6665C10.9458 2.6665 13.3337 5.05433 13.3337 7.99984H17.3337C17.3337 2.84519 13.155 -1.3335 8.00033 -1.3335V2.6665ZM13.3337 7.99984C13.3337 10.9453 10.9458 13.3332 8.00033 13.3332V17.3332C13.155 17.3332 17.3337 13.1545 17.3337 7.99984H13.3337ZM8.00033 13.3332C5.05482 13.3332 2.66699 10.9453 2.66699 7.99984H-1.33301C-1.33301 13.1545 2.84568 17.3332 8.00033 17.3332V13.3332Z" fill="#A7F3D0" mask="url(#path-1-inside-1_253_10485)"/>
<path fill-rule="evenodd" clip-rule="evenodd" d="M6.39443 15.1574C6.32993 15.0741 6.32993 14.3326 6.39443 12.9328C5.7038 12.9567 5.26747 12.9088 5.08543 12.7891C4.81233 12.6095 4.53897 12.0557 4.29637 11.6655C4.0538 11.2752 3.51543 11.2135 3.29802 11.1263C3.08061 11.039 3.02603 10.6834 3.8971 10.9523C4.76813 11.2213 4.81063 11.9537 5.08543 12.125C5.3602 12.2963 6.01717 12.2213 6.31493 12.0841C6.61273 11.9469 6.5908 11.4361 6.6439 11.2337C6.71103 11.0448 6.47443 11.0029 6.46923 11.0014C6.1785 11.0014 4.6513 10.6693 4.23183 9.19036C3.81233 7.71149 4.3527 6.74486 4.64097 6.32933C4.83317 6.05229 4.81617 5.46189 4.58997 4.55806C5.41117 4.45313 6.0449 4.71159 6.49113 5.33353C6.49157 5.33709 7.07617 4.98589 8.0001 4.98589C8.924 4.98589 9.25177 5.27196 9.50473 5.33353C9.7577 5.39509 9.96 4.24486 11.5223 4.55806C11.1961 5.19913 10.923 6.00019 11.1314 6.32933C11.3399 6.65846 12.1582 7.70506 11.6555 9.19036C11.3205 10.1806 10.6618 10.7843 9.67947 11.0014C9.56683 11.0373 9.5105 11.0953 9.5105 11.1753C9.5105 11.2954 9.6628 11.3085 9.88217 11.8707C10.0284 12.2456 10.039 13.3162 9.91387 15.0825C9.59687 15.1632 9.35027 15.2174 9.17403 15.2451C8.86157 15.2942 8.5223 15.3217 8.18897 15.3323C7.85563 15.343 7.73987 15.3418 7.279 15.2989C6.9718 15.2703 6.67693 15.2231 6.39443 15.1574Z" fill="#A7F3D0"/>
</g>
<defs>
<clipPath id="clip0_253_10485">
<rect width="16" height="16" fill="white"/>
</clipPath>
</defs>
</svg>
