<svg width="16" height="16" viewBox="0 0 16 16" fill="none" xmlns="http://www.w3.org/2000/svg">
<path d="M11.3333 2H4.66667C3.19391 2 2 3.19391 2 4.66667V11.3333C2 12.8061 3.19391 14 4.66667 14H11.3333C12.8061 14 14 12.8061 14 11.3333V4.66667C14 3.19391 12.8061 2 11.3333 2Z" fill="#A7F3D0" stroke="#A7F3D0" stroke-width="2" stroke-linejoin="round"/>
<path d="M7.99967 10.6668C9.47244 10.6668 10.6663 9.47293 10.6663 8.00016C10.6663 6.5274 9.47244 5.3335 7.99967 5.3335C6.52691 5.3335 5.33301 6.5274 5.33301 8.00016C5.33301 9.47293 6.52691 10.6668 7.99967 10.6668Z" fill="#A7F3D0" stroke="#1E293B" stroke-width="2" stroke-linejoin="round"/>
<path d="M11.6667 4.99984C12.0349 4.99984 12.3333 4.70137 12.3333 4.33317C12.3333 3.96497 12.0349 3.6665 11.6667 3.6665C11.2985 3.6665 11 3.96497 11 4.33317C11 4.70137 11.2985 4.99984 11.6667 4.99984Z" fill="#1E293B"/>
</svg>
