<svg width="52" height="52" viewBox="0 0 52 52" fill="none" xmlns="http://www.w3.org/2000/svg">
<path d="M15.1166 0.219238C6.86586 0.219238 0.15625 6.93258 0.15625 15.1834V36.8204C0.15625 45.0712 6.86586 51.7809 15.1166 51.7809H36.8833C45.1341 51.7809 51.8438 45.0712 51.8438 36.8204V15.1834C51.8438 6.93258 45.1341 0.219238 36.8833 0.219238H15.1166ZM15.1166 4.65186H36.8833C42.7555 4.65186 47.4149 9.3112 47.4149 15.1834V36.8204C47.4149 42.6926 42.7555 47.3483 36.8833 47.3483H15.1166C9.24444 47.3483 4.58881 42.6926 4.58881 36.8204V15.1834C4.58881 9.3112 9.24444 4.65186 15.1166 4.65186ZM39.8717 9.08441C38.1595 9.08441 36.7722 10.4717 36.7722 12.1839C36.7722 13.8961 38.1595 15.2834 39.8717 15.2834C41.5839 15.2834 42.9712 13.8961 42.9712 12.1839C42.9712 10.4717 41.5839 9.08441 39.8717 9.08441ZM26 12.7245C18.6939 12.7245 12.7245 18.694 12.7245 26C12.7245 33.3061 18.6939 39.2756 26 39.2756C33.3061 39.2756 39.2792 33.3061 39.2792 26C39.2792 18.694 33.3061 12.7245 26 12.7245ZM26 17.1571C30.9109 17.1571 34.8466 21.0891 34.8466 26C34.8466 30.911 30.9109 34.843 26 34.843C21.0891 34.843 17.157 30.911 17.157 26C17.157 21.0891 21.0891 17.1571 26 17.1571Z" fill="#A7F3D0"/>
</svg>
