<svg width="49" height="48" viewBox="0 0 49 48" fill="none" xmlns="http://www.w3.org/2000/svg">
<g clip-path="url(#clip0_347_12024)">
<path d="M3.70584 0C1.74676 0 0.15625 1.53549 0.15625 3.43432V44.5657C0.15625 46.4652 1.74676 48 3.70584 48H44.6067C46.5657 48 48.1562 46.4652 48.1562 44.5657V3.43432C48.1562 1.53549 46.5657 0 44.6067 0H3.70584ZM11.1277 8.05792C13.6079 8.05792 15.1276 9.67234 15.1747 11.7996C15.1747 13.8799 13.6021 15.5412 11.0739 15.5412H11.0337C8.60065 15.5412 7.02695 13.8799 7.02695 11.7996C7.02695 9.67234 8.64768 8.05792 11.1277 8.05792ZM32.5058 18C37.2758 18 40.842 21.0963 40.842 27.755V40.1826H33.5949V28.5835C33.5949 25.6692 32.5477 23.6793 29.9243 23.6793C27.9215 23.6793 26.7241 25.0306 26.2 26.3252C26.0085 26.7883 25.9714 27.4278 25.9714 28.0757V40.1826H18.7109C18.7109 40.1826 18.806 20.542 18.7109 18.5078H25.9714V21.5679C26.9351 20.0908 28.6616 18 32.5058 18ZM25.9714 21.5679C25.9544 21.5937 25.934 21.6228 25.9176 21.6481H25.9714V21.5679ZM7.45708 18.5078H14.7041V40.1826H7.45708V18.5078Z" fill="#A7F3D0"/>
</g>
<defs>
<clipPath id="clip0_347_12024">
<rect width="48" height="48" fill="white" transform="translate(0.15625)"/>
</clipPath>
</defs>
</svg>
