<svg width="17" height="16" viewBox="0 0 17 16" fill="none" xmlns="http://www.w3.org/2000/svg">
<path d="M15.8571 0H2.13929C1.51071 0 1 0.517857 1 1.15357V14.8464C1 15.4821 1.51071 16 2.13929 16H15.8571C16.4857 16 17 15.4821 17 14.8464V1.15357C17 0.517857 16.4857 0 15.8571 0ZM5.83571 13.7143H3.46429V6.07857H5.83929V13.7143H5.83571ZM4.65 5.03571C3.88929 5.03571 3.275 4.41786 3.275 3.66071C3.275 2.90357 3.88929 2.28571 4.65 2.28571C5.40714 2.28571 6.025 2.90357 6.025 3.66071C6.025 4.42143 5.41071 5.03571 4.65 5.03571ZM14.725 13.7143H12.3536V10C12.3536 9.11429 12.3357 7.975 11.1214 7.975C9.88571 7.975 9.69643 8.93929 9.69643 9.93572V13.7143H7.325V6.07857H9.6V7.12143H9.63214C9.95 6.52143 10.725 5.88929 11.8786 5.88929C14.2786 5.88929 14.725 7.47143 14.725 9.52857V13.7143Z" fill="#A7F3D0"/>
</svg>
